PathFileType	4	(x/y/z)	S06_PSF_T06
DataRate	CameraRate	NumFrames	NumMarkers	Units	OrigDataRate	OrigDataStartFrame	OrigNumFrames
240	240	9	51	mm	240	211	420
Frame#	Time	Sternum			R.Acromium			L.Acromium			Top.Head			R.ASIS			L.ASIS			R.PSIS			L.PSIS			R.Great.Tro			L.Great.Tro			R.Iliac.Crest			L.Iliac.Crest			V.Sacral			R.Thigh.Upper.Post			R.Thigh.Lower.Ant			R.Thigh.Lower.Post			R.Thigh.Upper.Ant			R.Knee.Lat			R.Knee.Med			R.Shank.Upper.Post			R.Shank.Lower.Ant			R.Shank.Lower.Post			R.Shank.Upper.Ant			R.Ankle.Lat			R.Ankle.Med			R.Heel.Upper			R.Heel.Med			R.Heel.Lat			R.Toe.Lat			R.Toe.Med			R.Toe.Tip			L.Thigh.Upper.Post			L.Thigh.Lower.Ant			L.Thigh.Lower.Post			L.Thigh.Upper.Ant			L.Knee.Lat			L.Knee.Med			L.Shank.Upper.Post			L.Shank.Lower.Ant			L.Shank.Lower.Post			L.Shank.Upper.Ant			L.Ankle.Lat			L.Ankle.Med			L.Heel.Upper			L.Heel.Med			L.Heel.Lat			L.Toe.Lat			L.Toe.Med			L.Toe.Tip			Cervical.Spine			Back			
		X1	Y1	Z1	X2	Y2	Z2	X3	Y3	Z3	X4	Y4	Z4	X5	Y5	Z5	X6	Y6	Z6	X7	Y7	Z7	X8	Y8	Z8	X9	Y9	Z9	X10	Y10	Z10	X11	Y11	Z11	X12	Y12	Z12	X13	Y13	Z13	X14	Y14	Z14	X15	Y15	Z15	X16	Y16	Z16	X17	Y17	Z17	X18	Y18	Z18	X19	Y19	Z19	X20	Y20	Z20	X21	Y21	Z21	X22	Y22	Z22	X23	Y23	Z23	X24	Y24	Z24	X25	Y25	Z25	X26	Y26	Z26	X27	Y27	Z27	X28	Y28	Z28	X29	Y29	Z29	X30	Y30	Z30	X31	Y31	Z31	X32	Y32	Z32	X33	Y33	Z33	X34	Y34	Z34	X35	Y35	Z35	X36	Y36	Z36	X37	Y37	Z37	X38	Y38	Z38	X39	Y39	Z39	X40	Y40	Z40	X41	Y41	Z41	X42	Y42	Z42	X43	Y43	Z43	X44	Y44	Z44	X45	Y45	Z45	X46	Y46	Z46	X47	Y47	Z47	X48	Y48	Z48	X49	Y49	Z49	X50	Y50	Z50	X51	Y51	Z51	

211	0.875	-366.66	1297.4	346.41	-490.76	1502	516.75	-502.79	1504.7	164.77	-464.62	1820	343.73	-415.99	1067	478.74	-407.42	1059.6	225.13	NaN	NaN	NaN	-612.96	1083	301.15	-474.36	991.22	526.27	-499.3	979.55	170.83	-502.24	1141.3	506.52	-479.77	1130.3	187.48	-627.5	1049.2	346.44	-462.27	737.68	504.05	-405.01	660.1	465.13	-473.05	651.93	480.33	-392.1	747.95	486.62	-449.57	542.44	460.26	-448.96	553.69	332.78	-512.83	317	447.19	-458.23	249.48	421.55	-524.78	242.23	427.6	-448.72	323.24	439.59	-507.57	111.58	394.5	-494.05	123.77	310.08	-575.32	76.283	345.33	-568.29	44.738	315	-567.54	44.524	380.08	-388.67	37.025	418.94	-365.61	41.652	296.62	-298.92	52.266	340.55	-351.24	747.18	179.88	-286.33	681.2	240.46	-341.63	656.57	188.95	-302.82	774.67	226.85	-351.37	564.57	202.05	-327.56	560.36	324.49	-516.29	415.79	199.1	-504.35	328.35	194.09	-566.13	361.12	210.1	-458.95	383.37	189.01	-614.08	228.2	197.9	-596.58	228.08	286.43	-701.19	233.73	244.06	-717.02	204.71	270.22	-710.64	217.39	209.77	-567.83	113.95	162.79	-559.2	85.672	277.66	-487.14	66.91	225.14	-551.77	1556	342.38	-609.33	1284.1	342.51
212	0.87917	-361.65	1297.8	346.47	-485.4	1502.4	516.68	-497.6	1505	164.74	-459.26	1820.2	343.45	-411.38	1067.2	478.96	-402.35	1060.2	225.4	NaN	NaN	NaN	-607.99	1083.3	300.86	-469.95	991.39	526.25	-493.7	980.19	170.72	-497.61	1141.7	506.51	-474.65	1130.8	187.59	-622.58	1049.5	346.14	-459.22	737.87	503.94	-402.31	659.98	465.19	-470.42	652.15	480.29	-388.97	747.73	486.64	-447.79	542.43	460.21	-446.82	553.72	332.67	-511.98	317.21	447.01	-457.57	249.5	421.44	-524.17	242.47	427.39	-447.81	323.22	439.53	-507.38	111.75	394.38	-493.83	123.92	309.96	-575.22	76.431	345.24	-568.4	44.835	314.85	-567.48	44.717	380.01	-388.69	36.993	418.94	-365.56	41.616	296.59	-298.83	52.126	340.58	-344.01	748.7	180.28	-278.82	683.18	241.12	-333.76	658.11	189.37	-295.91	776.53	227.4	-342.94	566.08	202.5	-319.56	562.07	324.89	-505.5	414.61	199.26	-491.95	327.39	193.67	-554.37	359.01	210.01	-447.64	383.23	188.8	-599.74	225	197.14	-582.38	224.99	285.66	-687.28	228.31	243.01	-702.46	198.77	269.01	-696.13	211.8	208.66	-550.58	112.04	161.88	-541.74	83.701	276.76	-468.98	66.885	224.43	-546.46	1556.3	342.34	-604.22	1284.5	342.55
213	0.88333	-356.64	1298	346.54	-480.05	1502.9	516.6	-492.41	1505.3	164.72	-453.91	1820.5	343.17	-406.76	1067.3	479.18	-397.29	1060.7	225.65	NaN	NaN	NaN	-603.02	1083.6	300.57	-465.55	991.53	526.23	-488.11	980.77	170.63	-492.97	1142	506.49	-469.53	1131.3	187.69	-617.66	1049.8	345.83	-456.2	738.04	503.81	-399.66	659.85	465.22	-467.81	652.35	480.23	-385.87	747.49	486.62	-446.04	542.41	460.14	-444.72	553.75	332.53	-511.14	317.42	446.82	-456.93	249.52	421.3	-523.57	242.71	427.15	-446.92	323.2	439.44	-507.18	111.92	394.24	-493.63	124.05	309.83	-575.12	76.581	345.13	-568.5	44.928	314.7	-567.42	44.915	379.93	-388.7	36.97	418.94	-365.52	41.574	296.56	-298.74	51.982	340.61	-336.89	750.15	180.67	-271.42	685.08	241.76	-326.03	659.58	189.8	-289.06	778.3	227.92	-334.66	567.52	202.97	-311.7	563.72	325.3	-494.68	413.29	199.4	-479.48	326.33	193.31	-542.52	356.75	209.92	-436.31	382.98	188.62	-585.25	221.67	196.43	-568.05	221.83	284.96	-673.16	222.77	241.98	-687.68	192.76	267.83	-681.4	206.07	207.57	-533.21	110.03	161.12	-524.14	81.728	276.01	-450.76	66.819	223.91	-541.14	1556.6	342.3	-599.12	1284.9	342.58
214	0.8875	-351.62	1298.3	346.6	-474.7	1503.3	516.53	-487.22	1505.5	164.68	-448.56	1820.7	342.89	-402.15	1067.4	479.4	-392.23	1061.1	225.9	NaN	NaN	NaN	-598.05	1083.9	300.27	-461.16	991.64	526.2	-482.52	981.3	170.54	-488.32	1142.2	506.47	-464.42	1131.7	187.78	-612.73	1050	345.52	-453.21	738.2	503.65	-397.04	659.72	465.22	-465.23	652.55	480.14	-382.78	747.25	486.58	-444.32	542.39	460.06	-442.66	553.77	332.38	-510.31	317.63	446.61	-456.31	249.54	421.13	-522.97	242.94	426.91	-446.05	323.18	439.34	-506.99	112.08	394.09	-493.44	124.19	309.7	-575.02	76.732	345.02	-568.59	45.017	314.55	-567.35	45.115	379.85	-388.7	36.953	418.92	-365.49	41.526	296.52	-298.65	51.834	340.63	-329.87	751.52	181.07	-264.14	686.88	242.37	-318.46	660.97	190.24	-282.28	779.98	228.4	-326.51	568.88	203.43	-303.95	565.32	325.71	-483.85	411.82	199.5	-466.94	325.17	193	-530.59	354.36	209.82	-424.95	382.64	188.48	-570.62	218.23	195.78	-553.58	218.6	284.31	-658.84	217.14	240.98	-672.67	186.68	266.71	-666.45	200.24	206.54	-515.72	107.94	160.48	-506.4	79.763	275.41	-432.47	66.723	223.55	-535.83	1556.9	342.26	-594.02	1285.2	342.62
215	0.89167	-346.61	1298.4	346.67	-469.35	1503.6	516.46	-482.03	1505.6	164.65	-443.21	1820.8	342.6	-397.53	1067.5	479.6	-387.17	1061.5	226.13	NaN	NaN	NaN	-593.08	1084.1	299.97	-456.78	991.7	526.17	-476.96	981.77	170.46	-483.65	1142.5	506.43	-459.31	1132	187.87	-607.79	1050.2	345.2	-450.24	738.35	503.46	-394.46	659.58	465.2	-462.68	652.74	480.03	-379.71	746.99	486.5	-442.63	542.37	459.97	-440.66	553.79	332.22	-509.48	317.83	446.39	-455.7	249.56	420.94	-522.37	243.17	426.66	-445.19	323.17	439.21	-506.79	112.25	393.92	-493.27	124.32	309.55	-574.93	76.886	344.9	-568.66	45.103	314.41	-567.28	45.318	379.77	-388.7	36.943	418.9	-365.46	41.473	296.48	-298.57	51.684	340.64	-322.96	752.82	181.46	-256.98	688.58	242.95	-311.03	662.29	190.7	-275.58	781.56	228.85	-318.5	570.18	203.9	-296.33	566.86	326.11	-473	410.22	199.57	-454.34	323.91	192.74	-518.57	351.84	209.72	-413.58	382.19	188.38	-555.84	214.7	195.19	-538.99	215.32	283.74	-644.31	211.44	240.04	-657.43	180.55	265.65	-651.29	194.32	205.56	-498.12	105.79	159.96	-488.53	77.814	274.95	-414.11	66.611	223.35	-530.52	1557.2	342.23	-588.93	1285.5	342.66
216	0.89583	-341.59	1298.6	346.73	-464	1503.9	516.39	-476.83	1505.8	164.62	-437.87	1821	342.31	-392.91	1067.5	479.8	-382.13	1061.8	226.34	NaN	NaN	NaN	-588.13	1084.2	299.68	-452.4	991.73	526.13	-471.43	982.19	170.38	-478.97	1142.6	506.39	-454.21	1132.3	187.95	-602.85	1050.4	344.87	-447.29	738.48	503.25	-391.92	659.44	465.15	-460.16	652.92	479.9	-376.65	746.72	486.39	-440.96	542.34	459.86	-438.69	553.79	332.03	-508.66	318.02	446.16	-455.12	249.58	420.71	-521.78	243.39	426.4	-444.34	323.16	439.06	-506.59	112.41	393.75	-493.12	124.45	309.39	-574.84	77.043	344.77	-568.71	45.185	314.26	-567.22	45.522	379.68	-388.69	36.938	418.87	-365.45	41.415	296.44	-298.48	51.532	340.66	-316.15	754.04	181.86	-249.93	690.19	243.51	-303.76	663.54	191.17	-268.96	783.04	229.27	-310.63	571.4	204.37	-288.83	568.34	326.52	-462.13	408.48	199.62	-441.68	322.57	192.53	-506.46	349.19	209.61	-402.18	381.65	188.32	-540.92	211.08	194.66	-524.26	211.99	283.23	-629.58	205.68	239.16	-641.96	174.39	264.69	-635.91	188.32	204.67	-480.42	103.6	159.56	-470.53	75.889	274.61	-395.7	66.497	223.26	-525.21	1557.4	342.2	-583.85	1285.8	342.69
217	0.9	-336.56	1298.7	346.78	-458.65	1504.2	516.32	-471.62	1505.9	164.58	-432.52	1821.1	342.02	-388.27	1067.5	479.98	-377.08	1062.1	226.54	NaN	NaN	NaN	-583.17	1084.4	299.4	-448.03	991.73	526.08	-465.92	982.56	170.32	-474.26	1142.7	506.33	-449.12	1132.6	188.02	-597.91	1050.5	344.55	-444.35	738.6	503.02	-389.42	659.29	465.07	-457.66	653.09	479.74	-373.61	746.44	486.25	-439.31	542.31	459.74	-436.78	553.78	331.84	-507.85	318.21	445.92	-454.56	249.6	420.47	-521.19	243.61	426.14	-443.5	323.15	438.9	-506.39	112.57	393.57	-492.98	124.56	309.22	-574.75	77.2	344.64	-568.73	45.263	314.13	-567.15	45.728	379.59	-388.67	36.938	418.83	-365.44	41.352	296.39	-298.39	51.379	340.67	-309.46	755.18	182.25	-243.01	691.69	244.04	-296.65	664.69	191.65	-262.42	784.41	229.67	-302.9	572.53	204.84	-281.44	569.75	326.92	-451.24	406.62	199.63	-428.97	321.14	192.39	-494.28	346.43	209.5	-390.77	381.03	188.31	-525.87	207.4	194.21	-509.38	208.63	282.81	-614.66	199.88	238.38	-626.27	168.21	263.83	-620.32	182.27	203.87	-462.63	101.39	159.26	-452.4	73.998	274.39	-377.22	66.395	223.29	-519.9	1557.6	342.17	-578.77	1286.1	342.73
218	0.90417	-331.54	1298.7	346.83	-453.3	1504.4	516.25	-466.42	1505.9	164.55	-427.18	1821.2	341.72	-383.63	1067.4	480.14	-372.04	1062.4	226.71	NaN	NaN	NaN	-578.23	1084.4	299.12	-443.65	991.69	526.03	-460.45	982.86	170.25	-469.52	1142.8	506.27	-444.03	1132.7	188.08	-592.96	1050.6	344.22	-441.44	738.7	502.77	-386.94	659.12	464.96	-455.18	653.25	479.57	-370.59	746.14	486.09	-437.69	542.28	459.61	-434.9	553.76	331.63	-507.04	318.4	445.67	-454.02	249.63	420.21	-520.6	243.83	425.88	-442.68	323.14	438.71	-506.19	112.73	393.38	-492.85	124.68	309.05	-574.67	77.359	344.5	-568.73	45.339	314	-567.09	45.933	379.49	-388.66	36.94	418.79	-365.44	41.285	296.34	-298.31	51.226	340.69	-302.88	756.24	182.65	-236.22	693.08	244.54	-289.69	665.77	192.14	-255.97	785.68	230.04	-295.32	573.59	205.3	-274.16	571.08	327.31	-440.34	404.63	199.62	-416.21	319.65	192.3	-482.03	343.57	209.39	-379.35	380.33	188.34	-510.68	203.68	193.82	-494.37	205.24	282.47	-599.54	194.05	237.69	-610.36	162.03	263.1	-604.52	176.19	203.18	-444.75	99.17	159.06	-434.14	72.153	274.26	-358.7	66.322	223.39	-514.59	1557.7	342.14	-573.7	1286.3	342.76
219	0.90833	-326.5	1298.8	346.88	-447.94	1504.5	516.19	-461.21	1506	164.51	-421.84	1821.2	341.43	-378.96	1067.3	480.29	-367	1062.5	226.86	NaN	NaN	NaN	-573.28	1084.5	298.85	-439.28	991.62	525.98	-455.02	983.11	170.19	-464.75	1142.9	506.2	-438.95	1132.9	188.13	-588	1050.6	343.9	-438.53	738.8	502.5	-384.5	658.94	464.82	-452.73	653.4	479.38	-367.58	745.83	485.91	-436.09	542.24	459.47	-433.07	553.72	331.41	-506.23	318.58	445.42	-453.49	249.65	419.93	-520.01	244.04	425.62	-441.86	323.13	438.52	-506	112.88	393.19	-492.72	124.78	308.87	-574.59	77.519	344.35	-568.69	45.411	313.88	-567.02	46.136	379.4	-388.64	36.945	418.74	-365.46	41.212	296.29	-298.22	51.073	340.7	-296.41	757.21	183.04	-229.55	694.36	245.02	-282.89	666.76	192.65	-249.61	786.85	230.39	-287.88	574.56	205.76	-267	572.35	327.7	-429.43	402.54	199.6	-403.41	318.1	192.28	-469.71	340.62	209.29	-367.93	379.55	188.41	-495.37	199.93	193.52	-479.2	201.85	282.22	-584.23	188.21	237.11	-594.22	155.87	262.5	-588.52	170.08	202.61	-426.79	96.966	158.95	-415.76	70.366	274.23	-340.12	66.294	223.57	-509.28	1557.8	342.12	-568.63	1286.5	342.8
